<svg width="600" height="655" viewBox="0 0 600 655" fill="none" xmlns="http://www.w3.org/2000/svg">
<path fill-rule="evenodd" clip-rule="evenodd" d="M13.4414 441.888C18.5471 453.604 31.9884 463.684 58.8709 483.846L225.271 608.646C252.153 628.808 265.595 638.889 281.024 642.575C294.597 645.817 309.185 645.689 322.699 642.21C338.062 638.254 351.324 627.938 377.849 607.308L542.034 479.608C568.559 458.978 581.821 448.663 586.72 436.859C589.181 430.932 590.205 424.756 589.795 418.63L589.763 356.698C589.762 354.476 587.951 352.681 585.729 352.7L527.848 353.197L374.612 238.27C347.729 218.108 334.288 208.027 318.858 204.341C305.286 201.099 290.697 201.227 277.184 204.707C261.821 208.663 248.559 218.978 222.034 239.608L70.9413 357.125L14.0622 357.614C11.8672 357.633 10.0974 359.417 10.0966 361.612L10.0738 423.247C9.68849 429.534 10.812 435.854 13.4414 441.888Z" fill="#0052B4"/>
<path fill-rule="evenodd" clip-rule="evenodd" d="M13.4414 377.888C18.5471 389.604 31.9884 399.684 58.8709 419.846L225.271 544.646C252.153 564.808 265.595 574.889 281.024 578.575C294.597 581.817 309.185 581.689 322.699 578.21C338.062 574.254 351.324 563.938 377.849 543.308L542.034 415.608C568.559 394.978 581.821 384.663 586.72 372.859C589.181 366.932 590.205 360.756 589.795 354.63L589.763 292.698C589.762 290.476 587.951 288.681 585.729 288.7L527.848 289.197L374.612 174.27C347.729 154.108 334.288 144.027 318.858 140.341C305.286 137.099 290.697 137.227 277.184 140.707C261.821 144.663 248.559 154.978 222.034 175.608L70.9413 293.125L14.0622 293.614C11.8672 293.633 10.0974 295.417 10.0966 297.612L10.0738 359.247C9.68849 365.534 10.812 371.854 13.4414 377.888Z" fill="#1DA5B8"/>
<path fill-rule="evenodd" clip-rule="evenodd" d="M13.4414 313.888C18.5471 325.604 31.9884 335.684 58.8709 355.846L225.271 480.646C252.153 500.808 265.595 510.889 281.024 514.575C294.597 517.817 309.185 517.689 322.699 514.21C338.062 510.254 351.324 499.938 377.849 479.308L542.034 351.608C568.559 330.978 581.821 320.663 586.72 308.859C589.181 302.932 590.205 296.756 589.795 290.63L589.763 228.698C589.762 226.476 587.951 224.681 585.729 224.7L527.848 225.197L374.612 110.27C347.729 90.1082 334.288 80.0273 318.858 76.3414C305.286 73.0992 290.697 73.2271 277.184 76.7069C261.821 80.6629 248.559 90.9781 222.034 111.608L70.9413 229.125L14.0622 229.614C11.8672 229.633 10.0974 231.417 10.0966 233.612L10.0738 295.247C9.68849 301.534 10.812 307.854 13.4414 313.888Z" fill="#C0C5D4"/>
<path d="M58.8709 291.846C31.9884 271.684 18.5471 261.604 13.4414 249.888C8.95029 239.582 8.85255 228.44 13.1622 218.057C18.0616 206.254 31.324 195.938 57.8487 175.308L222.034 47.6084C248.559 26.9781 261.821 16.6629 277.184 12.7069C290.697 9.22713 305.286 9.09917 318.858 12.3414C334.288 16.0273 347.729 26.1082 374.612 46.2701L541.012 171.07C567.894 191.232 581.336 201.313 586.441 213.029C590.932 223.334 591.03 234.477 586.72 244.859C581.821 256.663 568.559 266.978 542.034 287.608L377.849 415.308C351.324 435.938 338.062 446.254 322.699 450.21C309.185 453.689 294.597 453.817 281.024 450.575C265.595 446.889 252.153 436.808 225.271 416.646L58.8709 291.846Z" fill="#F5F5F5"/>
<g filter="url(#filter0_f_903_88)">
<path d="M10.0956 236.398C9.66548 230.235 10.6868 224.021 13.1622 218.057C18.0616 206.254 31.324 195.938 57.8487 175.308L222.034 47.6084C248.559 26.9781 261.821 16.6629 277.184 12.7069C290.697 9.22713 305.286 9.09917 318.858 12.3414C334.288 16.0273 347.729 26.1082 374.612 46.2701L541.012 171.07C567.894 191.232 581.336 201.313 586.441 213.029C589.159 219.264 590.268 225.805 589.765 232.3L589.795 290.63C589.921 292.518 589.911 294.411 589.765 296.3L589.795 354.63C589.921 356.518 589.911 358.411 589.765 360.3L589.795 418.63C590.205 424.756 589.181 430.931 586.72 436.859C581.821 448.663 568.559 458.978 542.034 479.608L377.849 607.308C351.324 627.938 338.062 638.253 322.699 642.209C309.185 645.689 294.597 645.817 281.025 642.575C265.595 638.889 252.153 628.808 225.271 608.646L58.8709 483.846C31.9884 463.684 18.5471 453.603 13.4414 441.888C10.812 435.854 9.68849 429.534 10.0738 423.247L10.0956 364.398C9.97588 362.682 9.9686 360.963 10.0738 359.247L10.0956 300.398C9.97588 298.682 9.9686 296.963 10.0738 295.247L10.0956 236.398Z" fill="url(#paint0_radial_903_88)" fill-opacity="0.7"/>
</g>
<path d="M339.379 99.8796L271.726 154.002L178.27 136.016L204.388 207.872L136.84 261.911L230.508 279.894L256.839 351.748L324.282 297.793L417.843 315.696L391.725 243.839L459.273 189.8L365.605 171.817L339.274 99.9636L339.379 99.8796ZM339.447 192.743L355.56 236.905L314.169 270.018L256.561 259.052L240.554 214.806L281.944 181.694L339.552 192.659L339.447 192.743ZM224.441 170.644L245.778 174.76L230.441 187.03L224.441 170.644ZM199.058 248.002L214.501 235.648L220.395 252.119L199.058 248.002ZM272.674 303.214L266.674 286.828L288.117 290.86L272.674 303.214ZM371.672 281.067L350.335 276.951L365.673 264.681L371.672 281.067ZM397.055 203.709L381.612 216.063L375.718 199.593L397.055 203.709ZM307.997 160.851L323.439 148.497L329.439 164.884L307.997 160.851Z" fill="#0052B4"/>
<defs>
<filter id="filter0_f_903_88" x="0" y="0" width="599.883" height="654.917" filterUnits="userSpaceOnUse" color-interpolation-filters="sRGB">
<feFlood flood-opacity="0" result="BackgroundImageFix"/>
<feBlend mode="normal" in="SourceGraphic" in2="BackgroundImageFix" result="shape"/>
<feGaussianBlur stdDeviation="5" result="effect1_foregroundBlur_903_88"/>
</filter>
<radialGradient id="paint0_radial_903_88" cx="0" cy="0" r="1" gradientUnits="userSpaceOnUse" gradientTransform="translate(300.071 369) rotate(90) scale(299.5 216.474)">
<stop stop-color="white"/>
<stop offset="1" stop-color="white" stop-opacity="0"/>
</radialGradient>
</defs>
</svg>
